HIERARCHY
ROOT Hips
{
	OFFSET 53.041100 -10.204616 96.173103
	CHANNELS 6 Xposition Yposition Zposition Xrotation Yrotation Zrotation
	JOINT spine
	{
		OFFSET 0.000000 -0.467661 8.132492
		CHANNELS 3 Xrotation Yrotation Zrotation
		JOINT spine1
		{
			OFFSET 0.000000 -0.000002 10.349800
			CHANNELS 3 Xrotation Yrotation Zrotation
			JOINT spine2
			{
				OFFSET 0.000000 -0.000001 9.916992
				CHANNELS 3 Xrotation Yrotation Zrotation
				JOINT Neck
				{
					OFFSET 0.000000 -1.213904 25.460999
					CHANNELS 3 Xrotation Yrotation Zrotation
					JOINT Head
					{
						OFFSET 0.000000 -0.000001 7.692444
						CHANNELS 3 Xrotation Yrotation Zrotation
						End Site
						{
							OFFSET 0.000000 6.140627 18.619995
						}
					}
				}
				JOINT RightShoulder
				{
					OFFSET -4.175751 0.581443 10.709595
					CHANNELS 3 Xrotation Yrotation Zrotation
					JOINT RightArm
					{
						OFFSET 0.000000 -0.000003 14.046600
						CHANNELS 3 Xrotation Yrotation Zrotation
						JOINT RightArmRoll
						{
							OFFSET 0.000000 -0.000001 7.090973
							CHANNELS 3 Xrotation Yrotation Zrotation
							JOINT RightForeArm
							{
								OFFSET 0.000000 -0.000003 20.653503
								CHANNELS 3 Xrotation Yrotation Zrotation
								JOINT RightForeArmRoll
								{
									OFFSET 0.000000 -0.000002 7.957184
									CHANNELS 3 Xrotation Yrotation Zrotation
									JOINT RightHand
									{
										OFFSET 0.000000 -0.000002 15.968292
										CHANNELS 3 Xrotation Yrotation Zrotation
										End Site
										{
											OFFSET 0.000000 0.000000 0.100006
										}
									}
								}
							}
						}
					}
				}
				JOINT LeftShoulder
				{
					OFFSET 4.175751 0.581443 10.709595
					CHANNELS 3 Xrotation Yrotation Zrotation
					JOINT LeftArm
					{
						OFFSET 0.000000 -0.000003 14.046600
						CHANNELS 3 Xrotation Yrotation Zrotation
						JOINT LeftArmRoll
						{
							OFFSET 0.000000 -0.000001 7.090973
							CHANNELS 3 Xrotation Yrotation Zrotation
							JOINT LeftForeArm
							{
								OFFSET 0.000000 -0.000003 20.653503
								CHANNELS 3 Xrotation Yrotation Zrotation
								JOINT LeftForeArmRoll
								{
									OFFSET 0.000000 -0.000002 7.957184
									CHANNELS 3 Xrotation Yrotation Zrotation
									JOINT LeftHand
									{
										OFFSET 0.000000 -0.000002 15.968292
										CHANNELS 3 Xrotation Yrotation Zrotation
										End Site
										{
											OFFSET 0.000000 0.000000 0.100006
										}
									}
								}
							}
						}
					}
				}
			}
		}
	}
	JOINT RightUpLeg
	{
		OFFSET -7.208340 1.108840 -1.321823
		CHANNELS 3 Xrotation Yrotation Zrotation
		JOINT RightUpLegRoll
		{
			OFFSET 0.000000 -0.000003 18.723801
			CHANNELS 3 Xrotation Yrotation Zrotation
			JOINT RightLeg
			{
				OFFSET 0.000000 0.000004 -23.186600
				CHANNELS 3 Xrotation Yrotation Zrotation
				JOINT RightLegRoll
				{
					OFFSET 0.000000 -0.000004 23.262398
					CHANNELS 3 Xrotation Yrotation Zrotation
					JOINT RightFoot
					{
						OFFSET 0.000000 -0.000004 19.362106
						CHANNELS 3 Xrotation Yrotation Zrotation
						JOINT RightToeBase
						{
							OFFSET 0.000000 -0.000002 16.185699
							CHANNELS 3 Xrotation Yrotation Zrotation
							End Site
							{
								OFFSET 0.006859 0.903521 7.838623
							}
						}
					}
				}
			}
		}
	}
	JOINT LeftUpLeg
	{
		OFFSET 7.208340 1.108840 -1.321823
		CHANNELS 3 Xrotation Yrotation Zrotation
		JOINT LeftUpLegRoll
		{
			OFFSET 0.000000 -0.000003 18.723900
			CHANNELS 3 Xrotation Yrotation Zrotation
			JOINT LeftLeg
			{
				OFFSET 0.000000 -0.000004 23.186508
				CHANNELS 3 Xrotation Yrotation Zrotation
				JOINT LeftLegRoll
				{
					OFFSET 0.000000 -0.000004 23.477509
					CHANNELS 3 Xrotation Yrotation Zrotation
					JOINT LeftFoot
					{
						OFFSET 0.000000 -0.000004 19.147003
						CHANNELS 3 Xrotation Yrotation Zrotation
						JOINT LeftToeBase
						{
							OFFSET 0.000000 -0.000002 16.185699
							CHANNELS 3 Xrotation Yrotation Zrotation
							End Site
							{
								OFFSET -0.030746 0.903521 7.838623
							}
						}
					}
				}
			}
		}
	}
}
MOTION
Frames: 9
Frame Time: 0.041667
53.166397 -8.860554 96.140999 -3.429730 0.987246 0.087804 -1.059409 -0.442569 0.071788 1.893692 -0.878577 0.134358 3.538846 -0.876777 0.144901 10.096604 4.881505 -4.228322 0.936038 -5.665160 -3.979452 -16.311315 -57.261652 -19.245981 -41.672046 -119.561587 -20.312358 -0.000010 0.000001 -0.000004 0.894405 -7.656310 -0.558598 0.000003 0.000007 -3.000001 -5.000217 -7.999032 0.000113 -16.953040 63.590222 20.090455 -47.935138 114.902428 38.309186 0.000003 0.000011 0.000004 0.079527 9.890042 0.842637 0.000001 -0.000006 3.016372 -5.000231 7.998824 -0.000135 -1.254922 -173.257611 3.613460 -179.999991 0.000005 -1.025001 170.976109 -1.814280 -0.577073 0.000006 -0.000005 -0.044307 68.097232 6.212060 3.905867 25.456945 -7.355614 0.000010 -1.517178 172.969445 -1.802675 -0.000004 -0.000004 -0.961896 -13.255849 1.312973 0.751578 0.000000 -0.000005 -0.176444 72.305646 -6.169411 -3.914482 25.458482 7.355624 -0.002292 
53.160496 -8.862225 96.141594 -3.432121 0.985488 0.087958 -1.058351 -0.442578 0.071788 1.895794 -0.879091 0.134566 3.540935 -0.877295 0.145110 10.096816 4.882124 -4.226220 0.925636 -5.657376 -3.978694 -16.317061 -57.262933 -19.252876 -41.672958 -119.563131 -20.316224 -0.000011 0.000002 -0.000004 0.898057 -7.657832 -0.558690 0.000003 0.000007 -2.999999 -5.000212 -7.999032 0.000114 -16.936576 63.588522 20.071441 -47.920197 114.898808 38.297171 0.000003 0.000009 0.000003 0.079526 9.891763 0.842067 -0.000001 -0.000007 3.016390 -5.000230 7.998823 -0.000135 -1.253770 -173.255603 3.613472 -179.999991 0.000006 -1.025002 170.974306 -1.813286 -0.576973 0.000006 -0.000005 -0.044310 68.096173 6.210862 3.908596 25.456941 -7.355613 0.000010 -1.514466 172.970429 -1.803123 -0.000004 -0.000004 -0.961896 -13.254853 1.314321 0.751585 -0.000001 -0.000005 -0.176444 72.304738 -6.168937 -3.915260 25.458482 7.355625 -0.002292 
53.157497 -8.862891 96.137794 -3.434558 0.983758 0.088132 -1.057289 -0.442591 0.071788 1.897923 -0.879629 0.134780 3.543076 -0.877840 0.145328 10.096822 4.882614 -4.224107 0.915689 -5.649784 -3.977875 -16.323083 -57.264371 -19.260095 -41.673177 -119.565603 -20.319560 -0.000008 0.000001 -0.000005 0.901516 -7.659455 -0.558788 0.000004 0.000008 -2.999999 -5.000215 -7.999031 0.000113 -16.919845 63.586432 20.052102 -47.905775 114.895407 38.285563 0.000001 0.000012 0.000004 0.079529 9.893385 0.841617 0.000000 -0.000007 3.016440 -5.000233 7.998824 -0.000136 -1.252533 -173.254592 3.613486 -179.999991 0.000005 -1.025001 170.972558 -1.812279 -0.577881 0.000007 -0.000004 -0.044313 68.095108 6.209626 3.911216 25.456945 -7.355613 0.000010 -1.511696 172.972423 -1.803675 -0.000005 -0.000004 -0.961896 -13.253760 1.315709 0.751590 0.000000 -0.000005 -0.176444 72.303816 -6.168398 -3.916128 25.458480 7.355625 -0.002293 
53.165695 -8.861341 96.139801 -3.437047 0.982049 0.088320 -1.056210 -0.442606 0.071788 1.900074 -0.880186 0.134999 3.545227 -0.878403 0.145550 10.096727 4.883010 -4.221999 0.906067 -5.642330 -3.977021 -16.329304 -57.265979 -19.267576 -41.675048 -119.567516 -20.324758 -0.000008 0.000001 -0.000002 0.904819 -7.661168 -0.558893 0.000001 0.000006 -3.000002 -5.000212 -7.999033 0.000113 -16.902997 63.584260 20.032644 -47.889752 114.892675 38.272125 0.000003 0.000011 0.000003 0.079525 9.894940 0.841252 -0.000001 -0.000006 3.016491 -5.000233 7.998823 -0.000135 -1.251230 -173.252598 3.613465 -179.999991 0.000006 -1.025002 170.970864 -1.811286 -0.577778 0.000006 -0.000004 -0.044318 68.093953 6.208416 3.913945 25.456948 -7.355614 0.000010 -1.508893 172.973421 -1.804244 -0.000005 -0.000004 -0.961896 -13.252668 1.317137 0.751599 -0.000000 -0.000005 -0.176444 72.302887 -6.167862 -3.916996 25.458478 7.355625 -0.002292 
53.165398 -8.866504 96.141190 -3.439554 0.980351 0.088517 -1.055142 -0.442624 0.071787 1.902245 -0.880753 0.135222 3.547398 -0.878976 0.145775 10.096534 4.883367 -4.219876 0.896633 -5.634945 -3.976153 -16.335658 -57.267680 -19.275210 -41.675909 -119.570234 -20.328948 -0.000012 0.000002 -0.000003 0.908046 -7.662922 -0.559003 0.000003 0.000008 -3.000000 -5.000217 -7.999032 0.000111 -16.886046 63.581903 20.013057 -47.875480 114.889342 38.260558 0.000004 0.000011 0.000004 0.079528 9.896473 0.840937 0.000001 -0.000007 3.016550 -5.000234 7.998823 -0.000135 -1.249885 -173.251601 3.613462 -179.999991 0.000006 -1.025002 170.969238 -1.810294 -0.577673 0.000006 -0.000005 -0.044323 68.092785 6.207208 3.916577 25.456950 -7.355613 0.000011 -1.506071 172.974404 -1.804845 -0.000004 -0.000004 -0.961896 -13.251576 1.318573 0.751607 -0.000001 -0.000006 -0.176444 72.301855 -6.167326 -3.917969 25.458482 7.355624 -0.002291 
53.167397 -8.864715 96.140892 -3.442062 0.978656 0.088716 -1.054059 -0.442641 0.071787 1.904415 -0.881323 0.135444 3.549570 -0.879552 0.146002 10.096339 4.883704 -4.217768 0.887247 -5.627580 -3.975269 -16.342095 -57.269470 -19.282929 -41.678105 -119.572270 -20.334629 -0.000009 0.000001 -0.000004 0.911246 -7.664684 -0.559112 0.000003 0.000007 -2.999999 -5.000211 -7.999032 0.000114 -16.869087 63.579533 19.993458 -47.859610 114.886678 38.247225 0.000004 0.000011 0.000003 0.079526 9.897994 0.840635 0.000002 -0.000007 3.016600 -5.000235 7.998824 -0.000135 -1.248538 -173.249579 3.613427 -179.999991 0.000006 -1.025001 170.967585 -1.809300 -0.577569 0.000007 -0.000005 -0.044329 68.091720 6.205933 3.919290 25.456948 -7.355613 0.000009 -1.503240 172.976385 -1.805484 -0.000005 -0.000004 -0.961896 -13.250585 1.320019 0.751619 0.000000 -0.000005 -0.176444 72.300926 -6.166758 -3.918831 25.458478 7.355625 -0.002291 
53.170097 -8.853726 96.136398 -3.444560 0.976955 0.088910 -1.052994 -0.442658 0.071787 1.906586 -0.881887 0.135666 3.551740 -0.880123 0.146227 10.096242 4.884070 -4.215655 0.877765 -5.620186 -3.974391 -16.348432 -57.271170 -19.290544 -41.678965 -119.574988 -20.338825 -0.000009 0.000002 -0.000003 0.914494 -7.666427 -0.559218 0.000004 0.000007 -3.000002 -5.000212 -7.999032 0.000116 -16.852189 63.577259 19.973947 -47.843737 114.884014 38.233896 0.000003 0.000012 0.000003 0.079528 9.899534 0.840307 0.000003 -0.000007 3.016661 -5.000233 7.998824 -0.000135 -1.247220 -173.247584 3.613399 -179.999991 0.000006 -1.025001 170.965932 -1.808307 -0.577465 0.000006 -0.000005 -0.044333 68.090552 6.204722 3.921919 25.456943 -7.355615 0.000011 -1.500421 172.977382 -1.806085 -0.000005 -0.000005 -0.961896 -13.249492 1.321456 0.751628 -0.000001 -0.000005 -0.176444 72.299991 -6.166195 -3.919794 25.458482 7.355624 -0.002291 
53.170197 -8.855865 96.137291 -3.447030 0.975240 0.089094 -1.051921 -0.442673 0.071787 1.908737 -0.882438 0.135884 3.553890 -0.880681 0.146448 10.096149 4.884505 -4.213544 0.868055 -5.612690 -3.973545 -16.354593 -57.272693 -19.297936 -41.680673 -119.576846 -20.343877 -0.000010 0.000002 -0.000003 0.917842 -7.668109 -0.559321 0.000001 0.000007 -3.000000 -5.000211 -7.999031 0.000114 -16.835373 63.575073 19.954522 -47.829294 114.880613 38.222227 0.000003 0.000011 0.000003 0.079530 9.901112 0.839920 0.000001 -0.000007 3.016709 -5.000232 7.998824 -0.000136 -1.245930 -173.246587 3.613410 -179.999991 0.000006 -1.025001 170.964225 -1.808298 -0.578516 0.000006 -0.000005 -0.044337 68.089398 6.203512 3.924549 25.456945 -7.355614 0.000011 -1.497621 172.979363 -1.806669 -0.000005 -0.000005 -0.961896 -13.248400 1.322873 0.751636 0.000000 -0.000005 -0.176444 72.298966 -6.165686 -3.920673 25.458480 7.355623 -0.002291 
53.173397 -8.863685 96.138092 -3.449460 0.973501 0.089261 -1.050859 -0.442684 0.071787 1.910857 -0.882970 0.136096 3.556011 -0.881216 0.146663 10.096156 4.885027 -4.211427 0.857973 -5.605046 -3.972725 -16.360545 -57.274131 -19.305091 -41.681912 -119.578499 -20.348223 -0.000011 0.000001 -0.000003 0.921359 -7.669701 -0.559417 0.000002 0.000007 -3.000004 -5.000215 -7.999031 0.000116 -16.818779 63.573160 19.935352 -47.814504 114.877075 38.210308 0.000005 0.000011 0.000003 0.079528 9.902765 0.839433 0.000002 -0.000007 3.016750 -5.000234 7.998823 -0.000135 -1.244715 -173.244579 3.613408 -179.999991 0.000006 -1.025001 170.962476 -1.807291 -0.578412 0.000006 -0.000005 -0.044341 68.088325 6.202274 3.927270 25.456945 -7.355613 0.000011 -1.494875 172.980374 -1.807160 -0.000005 -0.000004 -0.961896 -13.247307 1.324252 0.751640 -0.000000 -0.000005 -0.176444 72.298058 -6.165181 -3.921441 25.458482 7.355625 -0.002292 
